<?xml version="1.0" encoding="utf-8"?>
<!-- Generator: Adobe Illustrator 27.9.0, SVG Export Plug-In . SVG Version: 6.00 Build 0)  -->
<svg version="1.1" id="Layer_1" xmlns="http://www.w3.org/2000/svg" xmlns:xlink="http://www.w3.org/1999/xlink" x="0px" y="0px"
	 viewBox="0 0 1000 1000" style="enable-background:new 0 0 1000 1000;" xml:space="preserve">
<style type="text/css">
	.st0{fill:#000066;}
</style>
<g>
	<g>
		<g>
			<path class="st0" d="M932.02,700.69c-4.76-0.33-9.48-0.81-14.15-1.43c-21.15-2.76-41.59-7.96-60.94-15.34
				c-0.52-0.19-1.1-0.38-1.62-0.62c2.86-8.96,4.38-18.49,4.38-28.35c0-16.44-4.24-31.92-11.72-45.36c-1.05-1.91-2.14-3.81-3.38-5.62
				c-5.91-9.15-13.39-17.25-22.06-23.82c-2.43-1.86-4.96-3.62-7.58-5.24c-14.34-8.86-31.25-14.01-49.31-14.01
				c-16.01,0-31.06,4-44.26,11.1c-8.19,4.38-15.67,9.96-22.2,16.48c15.44,27.87,44.59,47.17,78.28,48.55
				c1.33,0.09,2.67,0.14,4.05,0.14c6.48,0,12.77-0.67,18.87-1.91c5.38-1.1,10.58-2.62,15.58-4.62c-1,10.72-1.72,21.54-2.14,32.4
				c-0.29,6.38-0.48,12.82-0.52,19.3c-0.05,1.43-0.05,2.91-0.05,4.38c-0.1,1.52-0.1,3.19-0.1,4.72c0,14.72,0.48,29.3,1.48,43.74
				c0.38,6.15,0.86,12.29,1.48,18.39c0.76,8.24,1.67,16.49,2.76,24.63c1.67,13.05,3.76,25.97,6.24,38.73c2.33,12.1,5,24.11,8,35.97
				c4.91,19.53,10.67,38.73,17.34,57.55c-21.54-7.24-42.59-15.63-63.08-24.97c-0.72-1-1.43-2-2.19-3c-0.67,0.38-1.33,0.72-2.05,1.05
				c-0.29-0.14-0.52-0.24-0.81-0.38c-12.63-5.91-25.01-12.15-37.16-18.82h-0.05c-2.62-1.43-5.19-2.86-7.77-4.34
				c-28.25-15.91-55.17-33.87-80.61-53.69c-7.34-5.72-14.58-11.58-21.68-17.63h-0.05c-2.57-2.19-5.15-4.38-7.67-6.62
				c-17.01-3.48-34.64-5.29-52.65-5.29c-8.77,0-17.44,0.43-26.01,1.29c-45.59,4.48-87.71,20.58-123.4,45.36
				c17.15-31.64,27.06-67.7,27.54-106.01c0.05-1,0.05-1.95,0.05-2.95c0-4.57-0.14-9.15-0.43-13.63
				c-1.19-20.82-5.19-40.93-11.62-59.89c-0.1-0.19-0.14-0.38-0.24-0.57c-2.14-6.29-4.53-12.43-7.19-18.44c0-0.05-0.05-0.05-0.05-0.1
				c-6.57-19.53-10.1-40.4-10.1-62.13c0-20.77,3.24-40.83,9.29-59.65c0.81-2.53,1.67-5.05,2.57-7.58
				c27.11-74.09,97.72-127.4,180.71-128.88c1.19-0.05,2.38-0.05,3.57-0.05c15.2,0,30.02,1.76,44.26,5.05c0.14,0,0.24,0.05,0.38,0.1
				c7.48,1.71,14.86,3.91,22.01,6.53c13.29,4.81,25.92,11.01,37.69,18.49c0,0,0.05,0,0.05,0.05c0.43,0.24,0.86,0.48,1.24,0.76
				c24.44,13.96,46.41,31.64,65.32,52.27c0.91,1,1.81,2,2.72,3c17.63,19.77,32.45,42.16,43.74,66.46
				c4.15,8.91,7.81,18.01,11.01,27.4c0.24,0.95,0.48,1.91,0.72,2.86c1.86,7.24,3.91,14.39,6.24,21.44V568
				c2.43,7.58,5.1,15.01,8.05,22.35c3.91,9.91,8.29,19.63,13.1,29.06c12.72,25.2,28.3,48.74,46.36,70.13
				C925.4,693.35,928.63,697.07,932.02,700.69z"/>
			<g>
				<path class="st0" d="M422.94,441.13c-0.57,1-1.19,1.95-1.76,2.95c-3.43,5.91-6.67,11.96-9.53,18.2l-24.44-14.05l-62.41-36.07
					c5.15-10.29,10.82-20.3,17.01-29.92l64.51,46.83l13.63,9.86L422.94,441.13z"/>
				<path class="st0" d="M728.15,248.64c-0.9-0.05-1.81-0.05-2.76-0.05c-50.79,0-93.62,34.68-106.06,81.61
					c-6.58,0-13.05,0.29-19.49,0.86V230.73c6.48-0.38,12.96-0.57,19.53-0.57C657.49,230.16,694.08,236.69,728.15,248.64z"/>
				<path class="st0" d="M576.02,334.31c-7.91,1.52-15.68,3.43-23.3,5.81l-20.87-98.15c11.01-3.05,22.25-5.53,33.68-7.39
					L576.02,334.31z"/>
				<path class="st0" d="M530.14,348.27c-7.39,3.14-14.58,6.62-21.58,10.53l-40.78-91.62c10.15-5.34,20.63-10.1,31.4-14.29
					L530.14,348.27z"/>
				<path class="st0" d="M488.17,371.56c-6.57,4.53-12.86,9.43-18.87,14.67c-0.05,0-0.05,0-0.05,0.05l-58.98-81.14
					c8.86-7.24,18.1-14.1,27.73-20.44L488.17,371.56z"/>
				<path class="st0" d="M451.96,402.91c-5.48,5.86-10.67,12.01-15.53,18.39l-9.86-8.91l-14.77-13.29l-49.84-44.93
					c7.15-9,14.82-17.58,22.87-25.73l20.53,22.77l42.26,46.93h0.05L451.96,402.91z"/>
				<path class="st0" d="M402.55,484.53c-1.24,3.43-2.33,6.91-3.38,10.43c-19.49,0.05-37.83,5.24-53.69,14.29
					c-3.05,1.71-6,3.57-8.86,5.62c-24.01,16.87-41.02,43.12-45.55,73.42c-0.81-9.39-1.24-18.96-1.24-28.59
					c0-21.53,2.1-42.64,6.05-63.03c3.53-18.25,8.57-35.92,15.01-52.93l58.7,26.11L402.55,484.53z"/>
			</g>
			<path class="st0" d="M997.36,146.98c-57.75,33.45-105.44,82.42-137.31,141.17c-64.03-56.84-148.32-91.33-240.7-91.33
				c-125.11,0-235.46,63.32-300.68,159.65c-5.24,7.72-10.2,15.68-14.82,23.82c-11.53,20.25-21.2,41.69-28.68,64.08
				c-1.33,4-2.62,7.96-3.76,12.01c-2.24,7.43-4.19,14.91-5.91,22.54c-5.76,25.16-8.86,51.31-9,78.14c-0.05,0.86-0.05,1.76-0.05,2.62
				c0,11.53,0.52,22.96,1.62,34.21c4.29,46.12,17.2,89.71,37.16,129.16c-16.82,74.09-56.36,139.6-110.87,188.77
				c-7.86,7.1-16.06,13.86-24.54,20.25c-9.39,7.1-19.11,13.72-29.16,19.87c-0.1,0.1-0.19,0.14-0.29,0.19
				c-6.86,4.19-13.91,8.19-21.06,11.91c-1.67-0.19-3.33-0.43-5-0.67c0.29,0.95,0.57,1.86,0.86,2.81
				c-13.01,6.57-26.44,12.44-40.26,17.44C44.9,990.85,24.13,996.38,2.64,1000c17.25-9.15,32.92-20.73,46.64-34.3
				c3.91-3.81,7.62-7.81,11.15-12.01c7.43-8.62,14.06-17.87,19.87-27.68c4.43-7.43,8.39-15.2,11.82-23.25
				c0.43-0.95,0.86-1.95,1.19-2.91c9.43-22.96,14.58-48.12,14.58-74.47c0-14.67-1.62-28.92-4.62-42.69
				c-1.43-6.43-3.14-12.72-5.19-18.91c0-0.05,0-0.05-0.05-0.1c-1.62-5-3.48-9.91-5.53-14.72c0-0.14-0.05-0.29-0.14-0.43
				c-11.39-31.73-20.01-64.84-25.49-99c26.2-82.57,85.66-150.22,162.66-187.38c-66.89,13.77-125.97,48.93-169.85,97.96v-0.43
				c0-56.98,8.53-112.01,24.39-163.8c25.87-16.1,54.27-28.54,84.43-36.59c18.96-5.05,38.59-8.34,58.79-9.77
				c-24.77-6.29-50.74-9.62-77.47-9.62c-2.57,0-5.1,0.05-7.67,0.1c-13.24,0.33-26.3,1.48-39.12,3.38c3-7.15,6.1-14.2,9.43-21.15
				c17.68-37.73,39.45-73.18,64.8-105.72l126.97,62.89L212.8,175.09C252.06,133.55,297.7,98,348.11,70.08l76.28,105.48L388.27,49.84
				C458.69,17.82,536.97,0,619.35,0v153.89L668.14,2.14C794.58,13.01,909.02,65.99,997.36,146.98z"/>
		</g>
	</g>
</g>
</svg>
